PathFileType	4	(X/Y/Z)	s10c0202.trc
DataRate	CameraRate	NumFrames	NumMarkers	Units	OrigDataRate	OrigDataStartFrame	OrigNumFrames
200	200	5	50	mm	200	750	2000
Frame#	Time	racr			lacr			c7			jug			rlel			rdr			llel			ldr			s2			lic			ric			lasi			rasi			rpsi			lpsi			rgt			lgt			rth1			rth2			rth3			rth4			rlfc			rmfc			rsh1			rsh2			rsh3			rsh4			rlmal			rmmal			rcal			rtoe			rmt5			lth1			lth2			lth4			lth3			llfc			lmfc			llmal			lmmal			lcal			lmt5			lsh1			lsh2			lsh3			lsh4			ltoe			SBIKE			LBIKE			RBIKE			
		X1	Y1	Z1	X2	Y2	Z2	X3	Y3	Z3	X4	Y4	Z4	X5	Y5	Z5	X6	Y6	Z6	X7	Y7	Z7	X8	Y8	Z8	X9	Y9	Z9	X10	Y10	Z10	X11	Y11	Z11	X12	Y12	Z12	X13	Y13	Z13	X14	Y14	Z14	X15	Y15	Z15	X16	Y16	Z16	X17	Y17	Z17	X18	Y18	Z18	X19	Y19	Z19	X20	Y20	Z20	X21	Y21	Z21	X22	Y22	Z22	X23	Y23	Z23	X24	Y24	Z24	X25	Y25	Z25	X26	Y26	Z26	X27	Y27	Z27	X28	Y28	Z28	X29	Y29	Z29	X30	Y30	Z30	X31	Y31	Z31	X32	Y32	Z32	X33	Y33	Z33	X34	Y34	Z34	X35	Y35	Z35	X36	Y36	Z36	X37	Y37	Z37	X38	Y38	Z38	X39	Y39	Z39	X40	Y40	Z40	X41	Y41	Z41	X42	Y42	Z42	X43	Y43	Z43	X44	Y44	Z44	X45	Y45	Z45	X46	Y46	Z46	X47	Y47	Z47	X48	Y48	Z48	X49	Y49	Z49	X50	Y50	Z50	
750	3.7500	392.137940	1276.859117	-40.234577	446.230984	1283.587857	-352.638199	366.295471	1338.559187	-201.156690	375.709082	1190.947997	-198.859619	410.582816	1017.521244	28.751211	594.859860	912.861669	-43.656725	423.376069	1033.147991	-493.498419	592.171626	912.596482	-422.916285	-123.140615	1089.966289	-240.162779	35.878583	1121.355261	-390.474457	41.943900	1119.527789	-96.084299	77.112841	1036.382415	-358.406982	59.717616	1046.608198	-100.798450	-90.576959	1150.497920	-183.487818	-79.809105	1157.230221	-293.508119	-42.384521	1016.772078	-46.598273	-39.829948	966.433481	-422.967681	78.365103	929.444173	-28.051837	164.660382	913.813548	-44.672801	230.006401	858.560845	-48.630161	177.457131	946.583826	-57.867584	322.228714	798.699365	-71.323779	298.157912	777.932269	-189.862742	224.892681	739.145330	-34.735263	171.209417	668.422204	-44.529996	92.225358	633.524148	-45.038822	190.932146	647.148976	-70.367048	7.484746	565.518501	-55.580971	35.526139	564.746801	-135.162653	-45.016158	579.603951	-103.200941	133.536916	414.559686	-102.089190	52.675042	445.573741	-40.987715	39.373982	859.193574	-431.812985	110.925597	811.549051	-418.373727	137.450064	835.874366	-410.865912	148.982146	732.055592	-404.262183	221.557064	648.392328	-384.975373	218.077189	639.981079	-272.344435	160.905234	279.523240	-380.443392	181.904642	286.127526	-301.600703	111.216378	251.092926	-337.437122	278.663572	194.897355	-404.609098	175.660426	533.373802	-414.565705	198.810191	450.290616	-400.080460	175.799548	364.603748	-395.094165	228.202255	453.643023	-375.740105	363.174371	222.491586	-349.072703	-217.884695	832.212438	-214.892203	-104.006348	80.267971	-418.405340	-103.961185	80.481866	-18.395564	
751	3.7550	388.587085	1277.474873	-36.509017	447.630284	1284.190841	-349.411670	366.492677	1338.716971	-199.711784	375.229638	1192.182368	-196.252575	409.888778	1017.072967	29.352441	594.810557	912.892527	-43.783822	424.461231	1034.832403	-492.877874	592.258333	913.035304	-422.448706	-122.815268	1089.625604	-242.766610	37.692554	1120.132752	-392.126155	40.267218	1120.986144	-97.197182	77.833388	1035.452802	-358.541184	59.078399	1047.910705	-101.307016	-90.792745	1150.383940	-186.954621	-79.068090	1156.783310	-296.673395	-43.340733	1018.314211	-47.619496	-39.045552	965.721350	-424.539822	79.414034	933.632440	-27.309672	166.089279	919.767270	-44.262286	232.654031	866.166085	-48.526422	177.979513	953.148755	-57.911089	326.895298	808.488296	-71.405899	304.291945	787.484460	-190.591941	230.022917	747.768768	-35.063202	177.668572	676.365407	-44.857236	99.267504	640.977144	-45.159844	197.589085	655.257066	-70.605042	15.482157	572.112148	-55.594486	43.001540	571.216358	-135.435064	-36.902321	587.179489	-103.010978	139.682760	419.539115	-102.672904	59.712114	451.896414	-41.320141	38.500584	858.385294	-432.956054	109.622484	809.451488	-420.161483	136.039811	832.975852	-412.432011	144.752133	728.560837	-405.073725	214.777551	644.136645	-385.609921	208.836239	634.588300	-272.113180	154.993317	274.306556	-380.515538	176.108194	280.740166	-301.798244	105.424213	246.388186	-337.421572	272.483639	188.681777	-404.560379	169.185727	528.842622	-415.076427	192.364978	445.776596	-400.499483	169.525148	360.027265	-395.560274	221.691369	449.272111	-376.175266	357.130095	215.403017	-348.951481	-217.889011	832.228749	-214.927012	-104.003083	80.280458	-418.435420	-103.947561	80.463964	-18.377001	
752	3.7600	385.098435	1278.017934	-32.803944	448.926964	1284.584298	-346.202634	365.388212	1339.499290	-197.271194	374.765003	1193.247881	-193.656802	409.186113	1016.679693	29.917480	594.706634	912.927337	-43.876234	425.356633	1036.362470	-492.273048	592.433991	913.438151	-422.206851	-122.314373	1088.443860	-244.736634	39.523312	1118.883748	-393.700620	38.693071	1122.292478	-98.205358	78.562454	1034.967781	-358.710609	58.454510	1049.130216	-101.850959	-90.438226	1150.154248	-191.247741	-78.209872	1156.547160	-299.935387	-44.139225	1020.073550	-47.935502	-38.486610	965.042463	-425.980078	80.090176	937.009431	-27.791249	167.433855	925.959927	-44.370833	235.238004	873.924310	-48.294192	178.124412	959.423502	-58.415594	331.399537	818.553184	-71.344053	310.354485	797.195388	-191.148169	235.428548	756.404825	-35.356369	184.039719	684.234015	-45.286496	106.053676	647.724571	-45.933464	204.413757	663.221870	-70.756279	23.882027	578.467918	-55.655064	51.237776	577.269036	-135.710115	-28.655637	593.685445	-103.276221	146.802443	425.455770	-102.505553	67.200772	457.867166	-41.422885	37.566351	857.631508	-434.122408	107.354513	807.019050	-421.091499	134.345839	829.954446	-413.117884	140.438676	725.392714	-405.993128	208.103165	640.144671	-385.817285	200.176744	630.618111	-271.551536	148.842166	269.839765	-380.622212	170.021316	275.788640	-301.992143	99.410949	242.344162	-337.560688	265.824901	182.548584	-404.451141	162.655412	524.463992	-415.678689	185.755664	441.478597	-400.991883	162.819921	355.335922	-395.974617	215.061205	444.823380	-376.580344	350.854055	208.525420	-348.892901	-217.888985	832.225304	-214.935809	-103.992588	80.263890	-418.432251	-103.957261	80.488499	-18.382438	
753	3.7650	381.622546	1278.471089	-29.079437	450.158547	1284.755004	-342.905665	363.987678	1340.410277	-194.710003	374.324000	1194.348022	-191.074142	408.455605	1016.177871	30.493508	594.576417	912.979756	-43.938753	426.122075	1037.808923	-491.745578	592.682637	913.820628	-422.098065	-122.061931	1088.236122	-247.257418	41.316544	1117.521643	-395.137692	37.186573	1123.545522	-99.195662	79.146835	1034.456743	-358.964492	58.033394	1050.419307	-102.236989	-89.742894	1149.343203	-196.664945	-77.381779	1156.145152	-302.988149	-44.822055	1021.767465	-49.356288	-38.083488	964.314242	-427.208348	80.860659	940.482828	-28.381480	168.485666	931.783166	-44.451013	237.604311	881.943575	-47.965564	178.237747	965.726213	-58.601048	335.651309	828.763725	-71.077307	316.393509	807.030767	-191.467348	240.793286	764.990722	-35.468488	190.586313	692.129674	-45.534098	113.049286	654.244783	-46.562535	211.459841	671.240362	-70.677835	32.523076	584.509774	-55.699046	59.777964	583.101331	-136.000131	-19.852629	599.910309	-103.489989	154.268766	429.590323	-103.245996	75.015719	463.497211	-41.903829	36.575145	856.992337	-435.548723	105.167972	804.789425	-422.142215	132.527808	827.071823	-413.768058	136.204248	722.316436	-406.995501	201.733883	636.586493	-386.393945	191.069962	627.852957	-271.972181	142.637824	265.904951	-380.750598	163.861183	271.362294	-302.204365	93.266572	238.811890	-337.604989	259.063929	176.936799	-404.347369	156.096875	520.407415	-416.329870	179.067098	437.352065	-401.685420	155.947581	351.369827	-396.517813	208.486211	440.730780	-377.304885	344.374822	201.912090	-348.790153	-217.876905	832.229137	-214.979167	-104.000560	80.260613	-418.430988	-103.959287	80.512089	-18.375036	
754	3.7700	378.155657	1278.883178	-25.450422	451.329375	1284.768351	-339.612252	363.042650	1340.930679	-192.491787	373.827571	1195.111689	-188.506812	407.762445	1015.642352	31.047948	594.412890	913.044970	-43.969110	426.481702	1039.039297	-491.183460	593.092433	914.142382	-422.323032	-122.064791	1088.059771	-249.457438	43.021084	1116.168619	-396.361722	35.698850	1124.667430	-100.236296	79.604614	1033.737646	-359.116324	57.687759	1051.602820	-102.539500	-93.849559	1150.767532	-195.672905	-76.635779	1155.864165	-305.906433	-45.409751	1023.449715	-50.542155	-37.882359	963.722225	-428.405979	81.570552	944.208207	-28.705394	169.180791	937.890749	-44.971880	239.889942	890.033097	-47.378026	178.127851	971.800303	-59.393827	339.684401	839.020068	-70.723049	322.403255	816.827714	-191.206946	246.088355	773.528018	-35.625453	197.125608	699.856933	-45.703936	120.294930	660.585484	-46.996443	218.554818	679.321013	-70.531672	41.136730	590.192289	-55.751937	68.694896	588.860119	-136.257360	-10.786534	606.325737	-103.304938	161.741213	434.128871	-103.550984	83.113126	468.837507	-42.350261	35.490473	856.370453	-436.989971	102.049332	802.283060	-422.345388	131.054297	824.873807	-415.097566	132.011145	719.611209	-408.150147	195.594265	633.277670	-387.021497	183.595786	625.921793	-272.331631	136.396545	262.354568	-380.927867	157.709691	267.545906	-302.494978	87.056718	235.920550	-337.658661	252.046640	171.681265	-404.261827	149.666106	516.633214	-417.090742	172.333606	433.572557	-402.425370	148.914380	347.819647	-397.410163	201.851403	436.809990	-378.050324	337.663705	195.591524	-348.664927	-217.803311	832.192547	-215.146942	-103.937170	80.340371	-418.341896	-103.951224	80.525192	-18.398546	
